<?xml version="1.0" encoding="UTF-8" standalone="no"?>
<!DOCTYPE svg PUBLIC "-//W3C//DTD SVG 1.1//EN" "http://www.w3.org/Graphics/SVG/1.1/DTD/svg11.dtd">
<svg width="100%" height="100%" viewBox="0 0 1153 195" version="1.1" xmlns="http://www.w3.org/2000/svg" xmlns:xlink="http://www.w3.org/1999/xlink" xml:space="preserve" xmlns:serif="http://www.serif.com/" style="fill-rule:evenodd;clip-rule:evenodd;stroke-linejoin:round;stroke-miterlimit:2;">
    <g transform="matrix(0.208434,0,0,0.208434,-294.725,-268.102)">
        <g>
            <g transform="matrix(4.16667,0,0,4.16667,0,-2412.73)">
                <path d="M836.741,960.355L808.995,1016.65L819.435,1016.65L836.741,980.508L854.265,1016.65L864.564,1016.65L836.741,960.355Z" style="fill:rgb(84,203,81);fill-rule:nonzero;"/>
            </g>
            <g transform="matrix(4.16667,0,0,4.16667,0,-2412.73)">
                <path d="M902.316,1016.65L876.538,1016.65L876.538,962.69L886.102,962.69L886.102,1008.04L902.316,1008.04L902.316,1016.65Z" style="fill:rgb(84,203,81);fill-rule:nonzero;"/>
            </g>
            <g transform="matrix(4.16667,0,0,4.16667,0,-2412.73)">
                <path d="M943.06,1016.65L917.282,1016.65L917.282,962.69L943.06,962.618L943.275,972.257L926.921,972.257L926.921,983.356L942.11,983.356L942.11,992.703L926.921,992.703L926.921,1006.72L943.275,1006.72L943.06,1016.65Z" style="fill:rgb(84,203,81);fill-rule:nonzero;"/>
            </g>
            <g transform="matrix(4.16667,0,0,4.16667,0,-2412.73)">
                <path d="M1000.89,1016.65L990.009,1016.65L978.324,996.938L965.983,1016.65L955.179,1016.65L972.848,988.394L957.295,962.69L968.248,962.69L978.399,979.923L989.132,962.69L1000.23,962.69L983.801,988.467L1000.89,1016.65Z" style="fill:rgb(84,203,81);fill-rule:nonzero;"/>
            </g>
            <g transform="matrix(4.16667,0,0,4.16667,0,-2412.73)">
                <path d="M1038.13,960.355L1010.38,1016.65L1020.82,1016.65L1038.13,980.508L1055.65,1016.65L1065.95,1016.65L1038.13,960.355Z" style="fill:rgb(84,203,81);fill-rule:nonzero;"/>
            </g>
            <g transform="matrix(4.16667,0,0,4.16667,0,-2412.73)">
                <path d="M1119.4,1017.53L1088.15,986.276L1088.15,1017.24L1077.63,1017.24L1077.63,960.866L1108.59,991.827L1108.59,962.033L1119.4,962.033L1119.4,1017.53Z" style="fill:rgb(84,203,81);fill-rule:nonzero;"/>
            </g>
            <g transform="matrix(4.16667,0,0,4.16667,0,-2412.73)">
                <path d="M1168.32,989.562C1168.32,977.393 1160.04,971.308 1143.49,971.308L1143.49,1008.04L1146.12,1008.04C1152.55,1008.04 1157.73,1006.6 1161.68,1003.73C1166.1,1000.51 1168.32,995.794 1168.32,989.562ZM1177.96,988.977C1177.96,997.79 1174.99,1004.7 1169.05,1009.71C1163.45,1014.34 1156.15,1016.65 1147.15,1016.65L1133.93,1016.65L1133.93,962.69L1146.48,962.69C1155.25,962.69 1162.52,964.834 1168.32,969.117C1174.75,973.888 1177.96,980.508 1177.96,988.977Z" style="fill:rgb(84,203,81);fill-rule:nonzero;"/>
            </g>
            <g transform="matrix(4.16667,0,0,4.16667,0,-2412.73)">
                <path d="M1218.04,1016.65L1192.27,1016.65L1192.27,962.69L1218.04,962.618L1218.26,972.257L1201.91,972.257L1201.91,983.356L1217.09,983.356L1217.09,992.703L1201.91,992.703L1201.91,1006.72L1218.26,1006.72L1218.04,1016.65Z" style="fill:rgb(84,203,81);fill-rule:nonzero;"/>
            </g>
            <g transform="matrix(4.16667,0,0,4.16667,0,-2412.73)">
                <path d="M1255,979.267C1253.44,974.204 1249.05,971.77 1241.85,971.965L1241.85,995.039L1241.92,1016.65L1232.35,1016.65L1232.35,962.69L1243.38,962.69C1250.05,962.69 1255.19,964.127 1258.79,967C1263.07,970.699 1265.31,975.957 1265.51,982.771C1265.31,987.835 1263.66,991.923 1260.54,995.039L1257.04,998.543L1269.89,1016.65L1258.35,1016.65L1243.31,995.039C1249.15,994.261 1252.95,991.632 1254.7,987.152C1255.87,984.427 1255.97,981.798 1255,979.267Z" style="fill:rgb(84,203,81);fill-rule:nonzero;"/>
            </g>
            <g transform="matrix(4.16667,0,0,4.16667,0,-2412.73)">
                <path d="M1339.38,962.69L1314.11,1019.43L1288.48,962.69L1299.14,962.69L1314.04,996.718L1328.93,962.69L1339.38,962.69Z" style="fill:rgb(84,203,81);fill-rule:nonzero;"/>
            </g>
            <g transform="matrix(4.16667,0,0,4.16667,0,-2412.73)">
                <path d="M1393.02,989.634C1393.02,984.184 1391.09,979.584 1387.22,975.834C1383.35,972.086 1378.66,970.213 1373.16,970.213C1367.66,970.213 1362.98,972.075 1359.11,975.799C1355.24,979.522 1353.3,984.136 1353.3,989.634C1353.3,995.039 1355.26,999.614 1359.18,1003.36C1363.1,1007.11 1367.76,1008.99 1373.16,1008.99C1378.56,1008.99 1383.23,1007.1 1387.15,1003.33C1391.06,999.555 1393.02,994.99 1393.02,989.634ZM1402.59,989.634C1402.59,997.522 1399.67,1004.2 1393.83,1009.68C1387.99,1015.16 1381.1,1017.89 1373.16,1017.89C1365.18,1017.89 1358.29,1015.18 1352.5,1009.75C1346.71,1004.32 1343.81,997.619 1343.81,989.634C1343.81,981.749 1346.75,975.056 1352.64,969.556C1358.39,964.25 1365.23,961.595 1373.16,961.595C1381.1,961.595 1387.96,964.25 1393.75,969.556C1399.65,975.056 1402.59,981.749 1402.59,989.634Z" style="fill:rgb(84,203,81);fill-rule:nonzero;"/>
            </g>
            <g transform="matrix(4.16667,0,0,4.16667,0,-2412.73)">
                <path d="M1441.66,971.089L1430.77,971.308L1430.77,1016.65L1421.28,1016.65L1421.28,971.308L1410.11,971.089L1410.41,962.618L1441.66,962.618L1441.66,971.089Z" style="fill:rgb(84,203,81);fill-rule:nonzero;"/>
            </g>
            <g transform="matrix(4.16667,0,0,4.16667,0,-2412.73)">
                <path d="M1487.29,971.089L1476.41,971.308L1476.41,1016.65L1466.92,1016.65L1466.92,971.308L1455.75,971.089L1456.04,962.618L1487.29,962.618L1487.29,971.089Z" style="fill:rgb(84,203,81);fill-rule:nonzero;"/>
            </g>
            <g transform="matrix(4.16667,0,0,4.16667,0,-2412.73)">
                <path d="M1527.67,1016.65L1501.9,1016.65L1501.9,962.69L1527.67,962.618L1527.89,972.257L1511.53,972.257L1511.53,983.356L1526.72,983.356L1526.72,992.703L1511.53,992.703L1511.53,1006.72L1527.89,1006.72L1527.67,1016.65Z" style="fill:rgb(84,203,81);fill-rule:nonzero;"/>
            </g>
            <g transform="matrix(4.16667,0,0,4.16667,0,-2412.73)">
                <path d="M1568.05,1016.65L1542.28,1016.65L1542.28,962.69L1551.84,962.69L1551.84,1008.04L1568.05,1008.04L1568.05,1016.65Z" style="fill:rgb(84,203,81);fill-rule:nonzero;"/>
            </g>
            <g transform="matrix(4.16667,0,0,4.16667,0,-2412.73)">
                <path d="M1608.79,1016.65L1583.02,1016.65L1583.02,962.69L1608.79,962.618L1609.01,972.257L1592.66,972.257L1592.66,983.356L1607.84,983.356L1607.84,992.703L1592.66,992.703L1592.66,1006.72L1609.01,1006.72L1608.79,1016.65Z" style="fill:rgb(84,203,81);fill-rule:nonzero;"/>
            </g>
            <g transform="matrix(4.16667,0,0,4.16667,0,-2412.73)">
                <path d="M1645.74,979.267C1644.18,974.204 1639.8,971.77 1632.6,971.965L1632.6,995.039L1632.67,1016.65L1623.1,1016.65L1623.1,962.69L1634.13,962.69C1640.8,962.69 1645.94,964.127 1649.54,967C1653.82,970.699 1656.06,975.957 1656.26,982.771C1656.06,987.835 1654.41,991.923 1651.29,995.039L1647.79,998.543L1660.64,1016.65L1649.1,1016.65L1634.06,995.039C1639.9,994.261 1643.7,991.632 1645.45,987.152C1646.62,984.427 1646.72,981.798 1645.74,979.267Z" style="fill:rgb(84,203,81);fill-rule:nonzero;"/>
            </g>
            <g transform="matrix(4.16667,0,0,4.16667,0,-2412.73)">
                <rect x="821.768" y="1000" width="28.192" height="7.37" style="fill:rgb(84,203,81);fill-rule:nonzero;"/>
            </g>
            <g transform="matrix(4.16667,0,0,4.16667,0,-2412.73)">
                <rect x="1024.07" y="1000" width="28.191" height="7.37" style="fill:rgb(84,203,81);fill-rule:nonzero;"/>
            </g>
            <g transform="matrix(4.16667,0,0,4.16667,0,-2412.73)">
                <path d="M599.143,1112.24L339.36,1112.24L491.835,887.76L641.293,1097.99L631.713,1112.19L492.207,916.987L370.945,1095.51L567.391,1095.51L485.123,975.538L494.399,959.486L599.143,1112.24Z" style="fill:rgb(84,203,81);fill-rule:nonzero;"/>
            </g>
            <g transform="matrix(4.16667,0,0,4.16667,0,-2412.73)">
                <path d="M524.309,887.76L784.092,887.76L631.616,1112.24L487.554,905.776L493.756,891.252L631.245,1083.01L752.507,904.49L556.061,904.49L638.329,1024.46L629.052,1040.51L524.309,887.76Z" style="fill:rgb(84,203,81);fill-rule:nonzero;"/>
            </g>
            <g transform="matrix(4.16667,0,0,4.16667,0,-2412.73)">
                <rect x="810.698" y="1048.62" width="4.464" height="23.85" style="fill:rgb(84,203,81);fill-rule:nonzero;"/>
            </g>
            <g transform="matrix(4.16667,0,0,4.16667,0,-2412.73)">
                <path d="M849.137,1052.71L841.573,1052.71L841.573,1048.62L861.199,1048.62L861.199,1052.71L853.635,1052.71L853.635,1072.47L849.137,1072.47L849.137,1052.71Z" style="fill:rgb(84,203,81);fill-rule:nonzero;"/>
            </g>
            <g transform="matrix(4.16667,0,0,4.16667,0,-2412.73)">
                <path d="M926.493,1053.63L922.063,1063.78L930.922,1063.78L926.493,1053.63ZM932.729,1067.97L920.258,1067.97L918.213,1072.47L913.341,1072.47L924.04,1048.62L928.946,1048.62L939.645,1072.47L934.739,1072.47L932.729,1067.97Z" style="fill:rgb(84,203,81);fill-rule:nonzero;"/>
            </g>
            <g transform="matrix(4.16667,0,0,4.16667,0,-2412.73)">
                <path d="M979.857,1048.58L984.355,1048.58L984.355,1072.47L981.561,1072.47L981.561,1072.5L969.022,1056.39L969.022,1072.47L964.524,1072.47L964.524,1048.62L968.17,1048.62L979.857,1063.4L979.857,1048.58Z" style="fill:rgb(84,203,81);fill-rule:nonzero;"/>
            </g>
            <g transform="matrix(4.16667,0,0,4.16667,0,-2412.73)">
                <path d="M1015.13,1068.14L1020.04,1068.14C1025.45,1068.14 1027.6,1064.19 1027.5,1060.3C1027.4,1056.59 1025.21,1052.88 1020.04,1052.88L1015.13,1052.88L1015.13,1068.14ZM1031.96,1060.34C1032.06,1066.37 1028.38,1072.47 1020.04,1072.47L1010.67,1072.47L1010.67,1048.62L1020.04,1048.62C1028.21,1048.62 1031.86,1054.44 1031.96,1060.34Z" style="fill:rgb(84,203,81);fill-rule:nonzero;"/>
            </g>
            <g transform="matrix(4.16667,0,0,4.16667,0,-2412.73)">
                <path d="M1104.58,1072.47L1086.73,1072.47L1086.73,1048.62L1104.58,1048.62L1104.58,1052.98L1091.19,1052.98L1091.19,1058.46L1104.1,1058.46L1104.1,1062.65L1091.19,1062.65L1091.19,1068.04L1104.58,1068.04L1104.58,1072.47Z" style="fill:rgb(84,203,81);fill-rule:nonzero;"/>
            </g>
            <g transform="matrix(4.16667,0,0,4.16667,0,-2412.73)">
                <path d="M1143.87,1072.57L1139.21,1072.57L1129.29,1048.62L1134.33,1048.62L1141.52,1067.19L1148.75,1048.62L1153.79,1048.62L1143.87,1072.57Z" style="fill:rgb(84,203,81);fill-rule:nonzero;"/>
            </g>
            <g transform="matrix(4.16667,0,0,4.16667,0,-2412.73)">
                <path d="M1196.83,1072.47L1178.98,1072.47L1178.98,1048.62L1196.83,1048.62L1196.83,1052.98L1183.44,1052.98L1183.44,1058.46L1196.35,1058.46L1196.35,1062.65L1183.44,1062.65L1183.44,1068.04L1196.83,1068.04L1196.83,1072.47Z" style="fill:rgb(84,203,81);fill-rule:nonzero;"/>
            </g>
            <g transform="matrix(4.16667,0,0,4.16667,0,-2412.73)">
                <path d="M1239.19,1048.58L1243.69,1048.58L1243.69,1072.47L1240.89,1072.47L1240.89,1072.5L1228.35,1056.39L1228.35,1072.47L1223.86,1072.47L1223.86,1048.62L1227.5,1048.62L1239.19,1063.4L1239.19,1048.58Z" style="fill:rgb(84,203,81);fill-rule:nonzero;"/>
            </g>
            <g transform="matrix(4.16667,0,0,4.16667,0,-2412.73)">
                <path d="M1276.47,1052.71L1268.91,1052.71L1268.91,1048.62L1288.53,1048.62L1288.53,1052.71L1280.97,1052.71L1280.97,1072.47L1276.47,1072.47L1276.47,1052.71Z" style="fill:rgb(84,203,81);fill-rule:nonzero;"/>
            </g>
            <g transform="matrix(4.16667,0,0,4.16667,0,-2412.73)">
                <path d="M1357.85,1054.38C1357.03,1053.01 1354.78,1051.72 1352.19,1051.72C1348.85,1051.72 1347.25,1053.11 1347.25,1054.89C1347.25,1056.96 1349.7,1057.54 1352.57,1057.88C1357.54,1058.5 1362.17,1059.79 1362.17,1065.48C1362.17,1070.8 1357.47,1073.08 1352.16,1073.08C1347.28,1073.08 1343.54,1071.58 1341.76,1067.22L1345.51,1065.28C1346.57,1067.9 1349.33,1069.06 1352.22,1069.06C1355.05,1069.06 1357.71,1068.07 1357.71,1065.48C1357.71,1063.23 1355.36,1062.31 1352.19,1061.97C1347.32,1061.39 1342.82,1060.1 1342.82,1054.75C1342.82,1049.84 1347.66,1047.83 1352.05,1047.8C1355.77,1047.8 1359.62,1048.86 1361.42,1052.54L1357.85,1054.38Z" style="fill:rgb(84,203,81);fill-rule:nonzero;"/>
            </g>
            <g transform="matrix(4.16667,0,0,4.16667,0,-2412.73)">
                <path d="M1405.93,1072.47L1388.08,1072.47L1388.08,1048.62L1405.93,1048.62L1405.93,1052.98L1392.54,1052.98L1392.54,1058.46L1405.45,1058.46L1405.45,1062.65L1392.54,1062.65L1392.54,1068.04L1405.93,1068.04L1405.93,1072.47Z" style="fill:rgb(84,203,81);fill-rule:nonzero;"/>
            </g>
            <g transform="matrix(4.16667,0,0,4.16667,0,-2412.73)">
                <path d="M1436.43,1052.81L1436.43,1060.44L1443.28,1060.44C1446.14,1060.44 1447.37,1058.53 1447.37,1056.62C1447.37,1054.72 1446.11,1052.81 1443.28,1052.81L1436.43,1052.81ZM1453.06,1072.47L1447.71,1072.47L1440.76,1064.5L1436.43,1064.5L1436.43,1072.47L1431.93,1072.47L1431.93,1048.58C1435.72,1048.58 1439.5,1048.62 1443.28,1048.62C1448.9,1048.65 1451.87,1052.4 1451.87,1056.52C1451.87,1059.79 1450.37,1063.1 1445.84,1064.02L1453.06,1072.16L1453.06,1072.47Z" style="fill:rgb(84,203,81);fill-rule:nonzero;"/>
            </g>
            <g transform="matrix(4.16667,0,0,4.16667,0,-2412.73)">
                <path d="M1490.34,1072.57L1485.67,1072.57L1475.76,1048.62L1480.8,1048.62L1487.99,1067.19L1495.21,1048.62L1500.26,1048.62L1490.34,1072.57Z" style="fill:rgb(84,203,81);fill-rule:nonzero;"/>
            </g>
            <g transform="matrix(4.16667,0,0,4.16667,0,-2412.73)">
                <rect x="1525.55" y="1048.62" width="4.46" height="23.85" style="fill:rgb(84,203,81);fill-rule:nonzero;"/>
            </g>
            <g transform="matrix(4.16667,0,0,4.16667,0,-2412.73)">
                <path d="M1577.75,1069.47C1575.3,1071.89 1572.13,1073.01 1568.69,1073.01C1559.83,1073.01 1556.08,1066.91 1556.05,1060.71C1556.01,1054.48 1560.07,1048.14 1568.69,1048.14C1571.92,1048.14 1574.99,1049.37 1577.44,1051.79L1574.45,1054.68C1572.88,1053.15 1570.77,1052.43 1568.69,1052.43C1562.93,1052.43 1560.44,1056.73 1560.48,1060.71C1560.51,1064.67 1562.79,1068.79 1568.69,1068.79C1570.77,1068.79 1573.12,1067.94 1574.68,1066.37L1577.75,1069.47Z" style="fill:rgb(84,203,81);fill-rule:nonzero;"/>
            </g>
            <g transform="matrix(4.16667,0,0,4.16667,0,-2412.73)">
                <path d="M1620.55,1072.47L1602.7,1072.47L1602.7,1048.62L1620.55,1048.62L1620.55,1052.98L1607.16,1052.98L1607.16,1058.46L1620.08,1058.46L1620.08,1062.65L1607.16,1062.65L1607.16,1068.04L1620.55,1068.04L1620.55,1072.47Z" style="fill:rgb(84,203,81);fill-rule:nonzero;"/>
            </g>
            <g transform="matrix(4.16667,0,0,4.16667,0,-2412.73)">
                <path d="M1661.96,1054.38C1661.14,1053.01 1658.89,1051.72 1656.3,1051.72C1652.96,1051.72 1651.36,1053.11 1651.36,1054.89C1651.36,1056.96 1653.81,1057.54 1656.67,1057.88C1661.65,1058.5 1666.28,1059.79 1666.28,1065.48C1666.28,1070.8 1661.58,1073.08 1656.27,1073.08C1651.39,1073.08 1647.65,1071.58 1645.87,1067.22L1649.62,1065.28C1650.68,1067.9 1653.44,1069.06 1656.33,1069.06C1659.16,1069.06 1661.82,1068.07 1661.82,1065.48C1661.82,1063.23 1659.47,1062.31 1656.3,1061.97C1651.43,1061.39 1646.93,1060.1 1646.93,1054.75C1646.93,1049.84 1651.77,1047.83 1656.16,1047.8C1659.88,1047.8 1663.73,1048.86 1665.53,1052.54L1661.96,1054.38Z" style="fill:rgb(84,203,81);fill-rule:nonzero;"/>
            </g>
        </g>
    </g>
</svg>

