<?xml version="1.0" encoding="UTF-8" standalone="no"?><!DOCTYPE svg PUBLIC "-//W3C//DTD SVG 1.1//EN" "http://www.w3.org/Graphics/SVG/1.1/DTD/svg11.dtd"><svg width="100%" height="100%" viewBox="0 0 603 114" version="1.1" xmlns="http://www.w3.org/2000/svg" xmlns:xlink="http://www.w3.org/1999/xlink" xml:space="preserve" xmlns:serif="http://www.serif.com/" style="fill-rule:evenodd;clip-rule:evenodd;stroke-linejoin:round;stroke-miterlimit:2;"><g><path d="M131.419,113.56l-131.419,0l77.134,-113.56l75.608,106.351l-4.846,7.184l-70.574,-98.75l-61.344,90.312l99.379,0l-41.618,-60.692l4.692,-8.12l52.988,77.275Z" style="fill:#54cb51;fill-rule:nonzero;"/><path d="M93.562,0l131.42,0l-77.135,113.56l-72.878,-104.446l3.137,-7.347l69.553,97.006l61.344,-90.31l-99.378,0l41.618,60.691l-4.693,8.119l-52.988,-77.273Z" style="fill:#54cb51;fill-rule:nonzero;"/><g transform="matrix(0.75,0,0,0.75,217.396,-82.1821)"><g transform="matrix(54.1667,0,0,54.1667,34.1137,185.283)"><path d="M0.653,0l-0.183,0l-0.033,-0.106l-0.219,0l-0.035,0.106l-0.183,0l0.259,-0.712l0.135,0l0.259,0.712Zm-0.262,-0.252l-0.06,-0.19l-0.064,0.19l0.124,0Z" style="fill:#54cb51;fill-rule:nonzero;"/></g><g transform="matrix(54.1667,0,0,54.1667,69.4755,185.283)"><path d="M0.311,0l-0.087,0c-0.037,0 -0.069,-0.008 -0.094,-0.023c-0.025,-0.016 -0.043,-0.036 -0.055,-0.06c-0.012,-0.025 -0.018,-0.05 -0.018,-0.076l0,-0.553l0.164,0l0,0.541c0,0.022 0.011,0.033 0.033,0.033l0.057,0l0,0.138Z" style="fill:#54cb51;fill-rule:nonzero;"/></g><g transform="matrix(54.1667,0,0,54.1667,87.9366,185.283)"><path d="M0.521,-0.215l-0.322,0c0,0.023 0.009,0.042 0.026,0.059c0.017,0.016 0.04,0.024 0.069,0.024c0.027,0 0.049,-0.004 0.064,-0.011c0.016,-0.007 0.031,-0.018 0.047,-0.034l0.098,0.098c-0.03,0.029 -0.06,0.051 -0.09,0.065c-0.031,0.013 -0.071,0.02 -0.119,0.02c-0.171,0 -0.256,-0.092 -0.256,-0.275c0,-0.086 0.022,-0.154 0.067,-0.202c0.044,-0.049 0.102,-0.073 0.174,-0.073c0.05,0 0.094,0.011 0.13,0.034c0.037,0.022 0.065,0.053 0.084,0.091c0.019,0.039 0.028,0.082 0.028,0.13l0,0.074Zm-0.162,-0.11c0,-0.016 -0.003,-0.03 -0.009,-0.042c-0.005,-0.012 -0.014,-0.022 -0.026,-0.03c-0.012,-0.008 -0.027,-0.012 -0.045,-0.012c-0.018,0 -0.033,0.004 -0.045,0.012c-0.013,0.008 -0.021,0.018 -0.026,0.03c-0.006,0.012 -0.009,0.026 -0.009,0.042l0.16,0Z" style="fill:#54cb51;fill-rule:nonzero;"/></g><g transform="matrix(54.1667,0,0,54.1667,118.22,185.283)"><path d="M0.556,0l-0.197,0l-0.082,-0.136l-0.08,0.136l-0.197,0l0.187,-0.275l-0.18,-0.263l0.197,0l0.073,0.13l0.075,-0.13l0.197,0l-0.18,0.263l0.187,0.275Z" style="fill:#54cb51;fill-rule:nonzero;"/></g><g transform="matrix(54.1667,0,0,54.1667,148.345,185.283)"><path d="M0.483,0l-0.16,0l0,-0.044c-0.018,0.017 -0.035,0.03 -0.052,0.037c-0.018,0.008 -0.04,0.012 -0.068,0.012c-0.054,0 -0.097,-0.016 -0.129,-0.048c-0.031,-0.032 -0.047,-0.074 -0.047,-0.126c0,-0.029 0.006,-0.055 0.019,-0.078c0.013,-0.024 0.034,-0.042 0.061,-0.057c0.028,-0.014 0.062,-0.021 0.103,-0.021l0.109,0l0,-0.014c0,-0.025 -0.006,-0.042 -0.019,-0.052c-0.012,-0.01 -0.033,-0.015 -0.062,-0.015c-0.02,0 -0.036,0.003 -0.048,0.008c-0.012,0.005 -0.025,0.015 -0.038,0.028l-0.102,-0.102c0.028,-0.028 0.056,-0.047 0.085,-0.057c0.028,-0.01 0.065,-0.015 0.111,-0.015c0.078,0 0.136,0.016 0.177,0.049c0.04,0.032 0.06,0.081 0.06,0.146l0,0.349Zm-0.164,-0.202l0,-0.013l-0.083,0c-0.016,0 -0.028,0.004 -0.038,0.011c-0.009,0.008 -0.014,0.018 -0.014,0.031c0,0.013 0.005,0.024 0.014,0.032c0.01,0.009 0.023,0.013 0.04,0.013c0.016,0 0.028,-0.001 0.038,-0.004c0.009,-0.002 0.018,-0.007 0.027,-0.016c0.011,-0.01 0.016,-0.028 0.016,-0.054Z" style="fill:#54cb51;fill-rule:nonzero;"/></g><g transform="matrix(54.1667,0,0,54.1667,177.386,185.283)"><path d="M0.522,0l-0.164,0l0,-0.322c0,-0.027 -0.007,-0.047 -0.021,-0.058c-0.014,-0.011 -0.029,-0.016 -0.045,-0.016c-0.016,0 -0.031,0.006 -0.045,0.017c-0.014,0.011 -0.021,0.03 -0.021,0.057l0,0.322l-0.164,0l0,-0.538l0.16,0l0,0.044c0.016,-0.016 0.035,-0.028 0.058,-0.037c0.023,-0.009 0.045,-0.013 0.067,-0.013c0.05,0 0.09,0.015 0.121,0.046c0.021,0.02 0.035,0.043 0.043,0.068c0.007,0.025 0.011,0.053 0.011,0.086l0,0.344Z" style="fill:#54cb51;fill-rule:nonzero;"/></g><g transform="matrix(54.1667,0,0,54.1667,208.754,185.283)"><path d="M0.507,0l-0.159,0l0,-0.044c-0.018,0.017 -0.036,0.03 -0.055,0.038c-0.019,0.008 -0.042,0.012 -0.069,0.012c-0.054,0 -0.098,-0.016 -0.131,-0.049c-0.021,-0.021 -0.035,-0.048 -0.041,-0.08c-0.006,-0.033 -0.009,-0.073 -0.009,-0.121l0,-0.05c0,-0.048 0.003,-0.088 0.009,-0.121c0.006,-0.033 0.02,-0.059 0.041,-0.08c0.01,-0.01 0.022,-0.019 0.036,-0.026c0.014,-0.008 0.029,-0.014 0.045,-0.017c0.015,-0.004 0.032,-0.006 0.049,-0.006c0.05,0 0.09,0.015 0.12,0.045l0,-0.213l0.164,0l0,0.712Zm-0.164,-0.269c0,-0.028 -0.002,-0.052 -0.005,-0.07c-0.003,-0.019 -0.009,-0.033 -0.019,-0.042c-0.01,-0.01 -0.024,-0.015 -0.044,-0.015c-0.028,0 -0.046,0.01 -0.055,0.03c-0.009,0.02 -0.013,0.053 -0.013,0.097c0,0.028 0.002,0.052 0.005,0.07c0.003,0.018 0.009,0.032 0.019,0.042c0.009,0.01 0.024,0.015 0.044,0.015c0.02,0 0.034,-0.005 0.044,-0.015c0.01,-0.01 0.016,-0.024 0.019,-0.042c0.003,-0.018 0.005,-0.042 0.005,-0.07Z" style="fill:#54cb51;fill-rule:nonzero;"/></g><g transform="matrix(54.1667,0,0,54.1667,239.566,185.283)"><path d="M0.521,-0.215l-0.322,0c0,0.023 0.009,0.042 0.026,0.059c0.017,0.016 0.04,0.024 0.069,0.024c0.027,0 0.049,-0.004 0.064,-0.011c0.016,-0.007 0.031,-0.018 0.047,-0.034l0.098,0.098c-0.03,0.029 -0.06,0.051 -0.09,0.065c-0.031,0.013 -0.071,0.02 -0.119,0.02c-0.171,0 -0.256,-0.092 -0.256,-0.275c0,-0.086 0.022,-0.154 0.067,-0.202c0.044,-0.049 0.102,-0.073 0.174,-0.073c0.05,0 0.094,0.011 0.13,0.034c0.037,0.022 0.065,0.053 0.084,0.091c0.019,0.039 0.028,0.082 0.028,0.13l0,0.074Zm-0.162,-0.11c0,-0.016 -0.003,-0.03 -0.009,-0.042c-0.005,-0.012 -0.014,-0.022 -0.026,-0.03c-0.012,-0.008 -0.027,-0.012 -0.045,-0.012c-0.018,0 -0.033,0.004 -0.045,0.012c-0.013,0.008 -0.021,0.018 -0.026,0.03c-0.006,0.012 -0.009,0.026 -0.009,0.042l0.16,0Z" style="fill:#54cb51;fill-rule:nonzero;"/></g><g transform="matrix(54.1667,0,0,54.1667,269.85,185.283)"><path d="M0.475,-0.494l-0.124,0.126c-0.009,-0.009 -0.018,-0.016 -0.026,-0.021c-0.009,-0.005 -0.02,-0.007 -0.033,-0.007c-0.015,0 -0.03,0.006 -0.044,0.017c-0.015,0.011 -0.022,0.03 -0.022,0.057l0,0.322l-0.164,0l0,-0.538l0.16,0l0,0.044c0.014,-0.014 0.032,-0.026 0.054,-0.035c0.022,-0.01 0.047,-0.015 0.073,-0.015c0.027,0 0.05,0.004 0.069,0.011c0.02,0.008 0.039,0.021 0.057,0.039Z" style="fill:#54cb51;fill-rule:nonzero;"/></g><g transform="matrix(54.1667,0,0,54.1667,307.618,185.283)"><path d="M0.601,-0.712l-0.236,0.712l-0.13,0l-0.235,-0.712l0.181,0l0.12,0.398l0.118,-0.398l0.182,0Z" style="fill:#54cb51;fill-rule:nonzero;"/></g><g transform="matrix(54.1667,0,0,54.1667,340.177,185.283)"><path d="M0.507,-0.269c0,0.053 -0.004,0.095 -0.013,0.125c-0.008,0.03 -0.024,0.057 -0.046,0.081c-0.043,0.046 -0.101,0.069 -0.173,0.069c-0.073,0 -0.13,-0.023 -0.173,-0.069c-0.015,-0.016 -0.026,-0.033 -0.035,-0.051c-0.009,-0.019 -0.015,-0.04 -0.019,-0.064c-0.003,-0.024 -0.005,-0.054 -0.005,-0.091c0,-0.037 0.002,-0.067 0.005,-0.091c0.004,-0.024 0.01,-0.045 0.019,-0.063c0.009,-0.018 0.02,-0.036 0.035,-0.052c0.019,-0.02 0.043,-0.036 0.071,-0.049c0.028,-0.013 0.062,-0.02 0.102,-0.02c0.04,0 0.074,0.006 0.102,0.019c0.029,0.013 0.052,0.03 0.071,0.05c0.022,0.024 0.038,0.051 0.046,0.081c0.009,0.031 0.013,0.072 0.013,0.125Zm-0.164,0c0,-0.031 -0.002,-0.055 -0.005,-0.073c-0.003,-0.017 -0.009,-0.03 -0.019,-0.039c-0.01,-0.01 -0.025,-0.015 -0.044,-0.015c-0.019,0 -0.034,0.005 -0.044,0.015c-0.01,0.01 -0.016,0.024 -0.019,0.042c-0.003,0.018 -0.005,0.041 -0.005,0.07c0,0.029 0.002,0.052 0.005,0.07c0.003,0.017 0.009,0.031 0.019,0.042c0.01,0.01 0.025,0.015 0.044,0.015c0.019,0 0.034,-0.005 0.044,-0.015c0.01,-0.01 0.016,-0.023 0.019,-0.04c0.003,-0.017 0.005,-0.041 0.005,-0.072Z" style="fill:#54cb51;fill-rule:nonzero;"/></g><g transform="matrix(54.1667,0,0,54.1667,369.958,185.283)"><path d="M0.323,0l-0.082,0c-0.037,0 -0.069,-0.008 -0.094,-0.023c-0.025,-0.016 -0.044,-0.036 -0.055,-0.06c-0.012,-0.025 -0.018,-0.05 -0.018,-0.076l0,-0.232l-0.05,0l0,-0.126l0.05,0l0,-0.154l0.164,0l0,0.154l0.085,0l0,0.126l-0.085,0l0,0.22c0,0.022 0.011,0.033 0.033,0.033l0.052,0l0,0.138Z" style="fill:#54cb51;fill-rule:nonzero;"/></g><g transform="matrix(54.1667,0,0,54.1667,389.609,185.283)"><path d="M0.323,0l-0.082,0c-0.037,0 -0.069,-0.008 -0.094,-0.023c-0.025,-0.016 -0.044,-0.036 -0.055,-0.06c-0.012,-0.025 -0.018,-0.05 -0.018,-0.076l0,-0.232l-0.05,0l0,-0.126l0.05,0l0,-0.154l0.164,0l0,0.154l0.085,0l0,0.126l-0.085,0l0,0.22c0,0.022 0.011,0.033 0.033,0.033l0.052,0l0,0.138Z" style="fill:#54cb51;fill-rule:nonzero;"/></g><g transform="matrix(54.1667,0,0,54.1667,409.26,185.283)"><path d="M0.521,-0.215l-0.322,0c0,0.023 0.009,0.042 0.026,0.059c0.017,0.016 0.04,0.024 0.069,0.024c0.027,0 0.049,-0.004 0.064,-0.011c0.016,-0.007 0.031,-0.018 0.047,-0.034l0.098,0.098c-0.03,0.029 -0.06,0.051 -0.09,0.065c-0.031,0.013 -0.071,0.02 -0.119,0.02c-0.171,0 -0.256,-0.092 -0.256,-0.275c0,-0.086 0.022,-0.154 0.067,-0.202c0.044,-0.049 0.102,-0.073 0.174,-0.073c0.05,0 0.094,0.011 0.13,0.034c0.037,0.022 0.065,0.053 0.084,0.091c0.019,0.039 0.028,0.082 0.028,0.13l0,0.074Zm-0.162,-0.11c0,-0.016 -0.003,-0.03 -0.009,-0.042c-0.005,-0.012 -0.014,-0.022 -0.026,-0.03c-0.012,-0.008 -0.027,-0.012 -0.045,-0.012c-0.018,0 -0.033,0.004 -0.045,0.012c-0.013,0.008 -0.021,0.018 -0.026,0.03c-0.006,0.012 -0.009,0.026 -0.009,0.042l0.16,0Z" style="fill:#54cb51;fill-rule:nonzero;"/></g><g transform="matrix(54.1667,0,0,54.1667,439.544,185.283)"><path d="M0.311,0l-0.087,0c-0.037,0 -0.069,-0.008 -0.094,-0.023c-0.025,-0.016 -0.043,-0.036 -0.055,-0.06c-0.012,-0.025 -0.018,-0.05 -0.018,-0.076l0,-0.553l0.164,0l0,0.541c0,0.022 0.011,0.033 0.033,0.033l0.057,0l0,0.138Z" style="fill:#54cb51;fill-rule:nonzero;"/></g><g transform="matrix(54.1667,0,0,54.1667,458.005,185.283)"><path d="M0.521,-0.215l-0.322,0c0,0.023 0.009,0.042 0.026,0.059c0.017,0.016 0.04,0.024 0.069,0.024c0.027,0 0.049,-0.004 0.064,-0.011c0.016,-0.007 0.031,-0.018 0.047,-0.034l0.098,0.098c-0.03,0.029 -0.06,0.051 -0.09,0.065c-0.031,0.013 -0.071,0.02 -0.119,0.02c-0.171,0 -0.256,-0.092 -0.256,-0.275c0,-0.086 0.022,-0.154 0.067,-0.202c0.044,-0.049 0.102,-0.073 0.174,-0.073c0.05,0 0.094,0.011 0.13,0.034c0.037,0.022 0.065,0.053 0.084,0.091c0.019,0.039 0.028,0.082 0.028,0.13l0,0.074Zm-0.162,-0.11c0,-0.016 -0.003,-0.03 -0.009,-0.042c-0.005,-0.012 -0.014,-0.022 -0.026,-0.03c-0.012,-0.008 -0.027,-0.012 -0.045,-0.012c-0.018,0 -0.033,0.004 -0.045,0.012c-0.013,0.008 -0.021,0.018 -0.026,0.03c-0.006,0.012 -0.009,0.026 -0.009,0.042l0.16,0Z" style="fill:#54cb51;fill-rule:nonzero;"/></g><g transform="matrix(54.1667,0,0,54.1667,488.289,185.283)"><path d="M0.475,-0.494l-0.124,0.126c-0.009,-0.009 -0.018,-0.016 -0.026,-0.021c-0.009,-0.005 -0.02,-0.007 -0.033,-0.007c-0.015,0 -0.03,0.006 -0.044,0.017c-0.015,0.011 -0.022,0.03 -0.022,0.057l0,0.322l-0.164,0l0,-0.538l0.16,0l0,0.044c0.014,-0.014 0.032,-0.026 0.054,-0.035c0.022,-0.01 0.047,-0.015 0.073,-0.015c0.027,0 0.05,0.004 0.069,0.011c0.02,0.008 0.039,0.021 0.057,0.039Z" style="fill:#54cb51;fill-rule:nonzero;"/></g><g transform="matrix(37.5,0,0,37.5,35.6676,226.95)"><rect x="0.092" y="-0.712" width="0.109" height="0.712" style="fill:#54cb51;fill-rule:nonzero;"/></g><g transform="matrix(37.5,0,0,37.5,52.5781,226.95)"><path d="M0.53,-0.615l-0.196,0l0,0.615l-0.108,0l0,-0.615l-0.196,0l0,-0.097l0.5,0l0,0.097Z" style="fill:#54cb51;fill-rule:nonzero;"/></g><g transform="matrix(37.5,0,0,37.5,94.364,226.95)"><path d="M0.454,0l-0.1,0l0,-0.046c-0.019,0.019 -0.038,0.032 -0.058,0.04c-0.02,0.008 -0.046,0.012 -0.077,0.012c-0.03,0 -0.057,-0.004 -0.079,-0.012c-0.023,-0.007 -0.042,-0.019 -0.057,-0.034c-0.027,-0.028 -0.04,-0.064 -0.04,-0.109c0,-0.029 0.007,-0.054 0.02,-0.076c0.013,-0.022 0.033,-0.039 0.059,-0.052c0.027,-0.012 0.058,-0.018 0.096,-0.018l0.134,0l0,-0.036c0,-0.032 -0.009,-0.056 -0.026,-0.071c-0.018,-0.016 -0.046,-0.023 -0.085,-0.023c-0.028,0 -0.05,0.003 -0.066,0.01c-0.016,0.008 -0.031,0.02 -0.045,0.038l-0.067,-0.063c0.023,-0.027 0.048,-0.046 0.076,-0.057c0.028,-0.011 0.063,-0.016 0.106,-0.016c0.139,0 0.209,0.058 0.209,0.174l0,0.339Zm-0.102,-0.183l0,-0.041l-0.119,0c-0.03,0 -0.052,0.006 -0.068,0.019c-0.015,0.013 -0.023,0.031 -0.023,0.054c0,0.048 0.031,0.072 0.093,0.072c0.022,0 0.04,-0.002 0.055,-0.006c0.014,-0.003 0.028,-0.011 0.04,-0.023c0.015,-0.015 0.022,-0.04 0.022,-0.075Z" style="fill:#54cb51;fill-rule:nonzero;"/></g><g transform="matrix(37.5,0,0,37.5,120.118,226.95)"><path d="M0.492,0l-0.102,0l0,-0.309c0,-0.025 -0.004,-0.046 -0.013,-0.063c-0.009,-0.017 -0.021,-0.029 -0.037,-0.037c-0.015,-0.008 -0.032,-0.012 -0.052,-0.012c-0.031,0 -0.056,0.009 -0.075,0.028c-0.02,0.019 -0.03,0.047 -0.03,0.084l0,0.309l-0.102,0l0,-0.507l0.1,0l0,0.051c0.017,-0.018 0.037,-0.033 0.061,-0.042c0.024,-0.01 0.049,-0.015 0.074,-0.015c0.052,0 0.093,0.015 0.125,0.046c0.034,0.033 0.051,0.081 0.051,0.143l0,0.324Z" style="fill:#54cb51;fill-rule:nonzero;"/></g><g transform="matrix(37.5,0,0,37.5,147.301,226.95)"><path d="M0.472,0l-0.1,0l0,-0.054c-0.013,0.015 -0.026,0.027 -0.039,0.036c-0.013,0.008 -0.028,0.015 -0.043,0.018c-0.015,0.004 -0.033,0.006 -0.052,0.006c-0.025,0 -0.049,-0.004 -0.07,-0.012c-0.022,-0.008 -0.04,-0.019 -0.054,-0.033c-0.016,-0.016 -0.028,-0.035 -0.037,-0.058c-0.008,-0.023 -0.013,-0.047 -0.016,-0.072c-0.003,-0.025 -0.004,-0.053 -0.004,-0.085c0,-0.032 0.001,-0.06 0.004,-0.085c0.003,-0.024 0.008,-0.048 0.016,-0.071c0.009,-0.022 0.021,-0.042 0.037,-0.058c0.014,-0.014 0.032,-0.025 0.053,-0.033c0.022,-0.008 0.045,-0.012 0.07,-0.012c0.028,0 0.053,0.004 0.074,0.013c0.022,0.008 0.041,0.023 0.059,0.044l0,-0.256l0.102,0l0,0.712Zm-0.102,-0.254c0,-0.034 -0.002,-0.063 -0.008,-0.088c-0.005,-0.024 -0.015,-0.043 -0.031,-0.058c-0.015,-0.014 -0.037,-0.021 -0.066,-0.021c-0.029,0 -0.051,0.007 -0.067,0.022c-0.015,0.014 -0.026,0.034 -0.031,0.058c-0.005,0.024 -0.008,0.053 -0.008,0.087c0,0.035 0.003,0.064 0.008,0.088c0.005,0.025 0.016,0.044 0.031,0.059c0.016,0.015 0.038,0.022 0.067,0.022c0.042,0 0.07,-0.015 0.084,-0.045c0.014,-0.029 0.021,-0.071 0.021,-0.124Z" style="fill:#54cb51;fill-rule:nonzero;"/></g><g transform="matrix(37.5,0,0,37.5,188.831,226.95)"><path d="M0.548,0l-0.456,0l0,-0.712l0.456,0l0,0.097l-0.347,0l0,0.208l0.296,0l0,0.096l-0.296,0l0,0.214l0.347,0l0,0.097Z" style="fill:#54cb51;fill-rule:nonzero;"/></g><g transform="matrix(37.5,0,0,37.5,217.332,226.95)"><path d="M0.463,-0.507l-0.186,0.507l-0.083,0l-0.186,-0.507l0.108,0l0.12,0.357l0.119,-0.357l0.108,0Z" style="fill:#54cb51;fill-rule:nonzero;"/></g><g transform="matrix(37.5,0,0,37.5,240.889,226.95)"><path d="M0.485,-0.224l-0.329,0c0,0.03 0.005,0.055 0.015,0.076c0.01,0.021 0.025,0.037 0.044,0.049c0.019,0.011 0.042,0.017 0.07,0.017c0.028,0 0.051,-0.004 0.068,-0.012c0.017,-0.008 0.036,-0.021 0.055,-0.04l0.065,0.061c-0.028,0.027 -0.056,0.048 -0.084,0.06c-0.028,0.013 -0.064,0.019 -0.106,0.019c-0.033,0 -0.063,-0.005 -0.091,-0.014c-0.028,-0.01 -0.052,-0.025 -0.072,-0.045c-0.021,-0.021 -0.037,-0.048 -0.048,-0.081c-0.012,-0.033 -0.017,-0.073 -0.017,-0.12c0,-0.054 0.009,-0.101 0.026,-0.14c0.018,-0.038 0.043,-0.068 0.075,-0.088c0.033,-0.021 0.07,-0.031 0.114,-0.031c0.044,0 0.083,0.01 0.115,0.031c0.033,0.02 0.057,0.049 0.074,0.086c0.017,0.037 0.026,0.079 0.026,0.127l0,0.045Zm-0.101,-0.071c-0.001,-0.026 -0.006,-0.049 -0.014,-0.069c-0.008,-0.019 -0.021,-0.035 -0.038,-0.047c-0.018,-0.011 -0.038,-0.017 -0.062,-0.017c-0.023,0 -0.044,0.006 -0.062,0.017c-0.017,0.012 -0.031,0.028 -0.039,0.047c-0.005,0.011 -0.008,0.02 -0.009,0.028c-0.002,0.008 -0.003,0.022 -0.004,0.041l0.228,0Z" style="fill:#54cb51;fill-rule:nonzero;"/></g><g transform="matrix(37.5,0,0,37.5,266.991,226.95)"><path d="M0.492,0l-0.102,0l0,-0.309c0,-0.025 -0.004,-0.046 -0.013,-0.063c-0.009,-0.017 -0.021,-0.029 -0.037,-0.037c-0.015,-0.008 -0.032,-0.012 -0.052,-0.012c-0.031,0 -0.056,0.009 -0.075,0.028c-0.02,0.019 -0.03,0.047 -0.03,0.084l0,0.309l-0.102,0l0,-0.507l0.1,0l0,0.051c0.017,-0.018 0.037,-0.033 0.061,-0.042c0.024,-0.01 0.049,-0.015 0.074,-0.015c0.052,0 0.093,0.015 0.125,0.046c0.034,0.033 0.051,0.081 0.051,0.143l0,0.324Z" style="fill:#54cb51;fill-rule:nonzero;"/></g><g transform="matrix(37.5,0,0,37.5,294.174,226.95)"><path d="M0.293,0l-0.061,0c-0.03,0 -0.055,-0.007 -0.076,-0.02c-0.021,-0.013 -0.037,-0.03 -0.048,-0.051c-0.01,-0.021 -0.015,-0.045 -0.015,-0.07l0,-0.279l-0.058,0l0,-0.078l0.058,0l0,-0.154l0.102,0l0,0.154l0.098,0l0,0.078l-0.098,0l0,0.274c0,0.039 0.019,0.059 0.056,0.059l0.042,0l0,0.087Z" style="fill:#54cb51;fill-rule:nonzero;"/></g><g transform="matrix(37.5,0,0,37.5,327.775,226.95)"><path d="M0.538,-0.203c0,0.031 -0.006,0.06 -0.018,0.087c-0.013,0.026 -0.031,0.048 -0.054,0.066c-0.023,0.019 -0.05,0.033 -0.081,0.042c-0.031,0.009 -0.065,0.014 -0.103,0.014c-0.054,0 -0.101,-0.007 -0.142,-0.022c-0.04,-0.015 -0.077,-0.039 -0.11,-0.072l0.072,-0.072c0.016,0.017 0.033,0.03 0.053,0.04c0.019,0.011 0.039,0.018 0.06,0.022c0.022,0.005 0.045,0.007 0.069,0.007c0.046,0 0.082,-0.01 0.108,-0.029c0.026,-0.019 0.039,-0.046 0.039,-0.08c0,-0.033 -0.009,-0.057 -0.028,-0.074c-0.009,-0.009 -0.018,-0.015 -0.03,-0.019c-0.011,-0.005 -0.027,-0.008 -0.048,-0.011l-0.084,-0.012c-0.058,-0.008 -0.103,-0.027 -0.135,-0.057c-0.035,-0.032 -0.052,-0.078 -0.052,-0.136c0,-0.041 0.01,-0.078 0.029,-0.109c0.019,-0.032 0.047,-0.056 0.083,-0.074c0.035,-0.017 0.077,-0.026 0.126,-0.026c0.048,0 0.089,0.007 0.124,0.02c0.035,0.013 0.067,0.033 0.097,0.061l-0.069,0.069c-0.014,-0.014 -0.03,-0.025 -0.046,-0.033c-0.016,-0.008 -0.033,-0.014 -0.051,-0.017c-0.017,-0.004 -0.037,-0.006 -0.058,-0.006c-0.027,0 -0.05,0.005 -0.07,0.015c-0.019,0.009 -0.034,0.022 -0.044,0.039c-0.011,0.017 -0.016,0.036 -0.016,0.057c0,0.028 0.009,0.05 0.027,0.066c0.009,0.008 0.02,0.015 0.035,0.021c0.014,0.006 0.029,0.01 0.045,0.012l0.081,0.012c0.033,0.005 0.059,0.012 0.08,0.02c0.021,0.008 0.038,0.019 0.053,0.033c0.039,0.034 0.058,0.082 0.058,0.146Z" style="fill:#54cb51;fill-rule:nonzero;"/></g><g transform="matrix(37.5,0,0,37.5,355.782,226.95)"><path d="M0.485,-0.224l-0.329,0c0,0.03 0.005,0.055 0.015,0.076c0.01,0.021 0.025,0.037 0.044,0.049c0.019,0.011 0.042,0.017 0.07,0.017c0.028,0 0.051,-0.004 0.068,-0.012c0.017,-0.008 0.036,-0.021 0.055,-0.04l0.065,0.061c-0.028,0.027 -0.056,0.048 -0.084,0.06c-0.028,0.013 -0.064,0.019 -0.106,0.019c-0.033,0 -0.063,-0.005 -0.091,-0.014c-0.028,-0.01 -0.052,-0.025 -0.072,-0.045c-0.021,-0.021 -0.037,-0.048 -0.048,-0.081c-0.012,-0.033 -0.017,-0.073 -0.017,-0.12c0,-0.054 0.009,-0.101 0.026,-0.14c0.018,-0.038 0.043,-0.068 0.075,-0.088c0.033,-0.021 0.07,-0.031 0.114,-0.031c0.044,0 0.083,0.01 0.115,0.031c0.033,0.02 0.057,0.049 0.074,0.086c0.017,0.037 0.026,0.079 0.026,0.127l0,0.045Zm-0.101,-0.071c-0.001,-0.026 -0.006,-0.049 -0.014,-0.069c-0.008,-0.019 -0.021,-0.035 -0.038,-0.047c-0.018,-0.011 -0.038,-0.017 -0.062,-0.017c-0.023,0 -0.044,0.006 -0.062,0.017c-0.017,0.012 -0.031,0.028 -0.039,0.047c-0.005,0.011 -0.008,0.02 -0.009,0.028c-0.002,0.008 -0.003,0.022 -0.004,0.041l0.228,0Z" style="fill:#54cb51;fill-rule:nonzero;"/></g><g transform="matrix(37.5,0,0,37.5,381.884,226.95)"><path d="M0.437,-0.465l-0.077,0.077c-0.012,-0.012 -0.023,-0.02 -0.034,-0.026c-0.011,-0.005 -0.025,-0.007 -0.042,-0.007c-0.018,0 -0.035,0.004 -0.05,0.014c-0.016,0.009 -0.028,0.022 -0.037,0.04c-0.009,0.017 -0.014,0.036 -0.014,0.059l0,0.308l-0.102,0l0,-0.507l0.1,0l0,0.055c0.013,-0.018 0.032,-0.033 0.057,-0.044c0.024,-0.012 0.05,-0.017 0.078,-0.017c0.025,0 0.047,0.003 0.066,0.011c0.019,0.007 0.037,0.02 0.055,0.037Z" style="fill:#54cb51;fill-rule:nonzero;"/></g><g transform="matrix(37.5,0,0,37.5,404.233,226.95)"><path d="M0.463,-0.507l-0.186,0.507l-0.083,0l-0.186,-0.507l0.108,0l0.12,0.357l0.119,-0.357l0.108,0Z" style="fill:#54cb51;fill-rule:nonzero;"/></g><g transform="matrix(37.5,0,0,37.5,427.79,226.95)"><path d="M0.186,-0.607l-0.108,0l0,-0.108l0.108,0l0,0.108Zm-0.003,0.607l-0.102,0l0,-0.507l0.102,0l0,0.507Z" style="fill:#54cb51;fill-rule:nonzero;"/></g><g transform="matrix(37.5,0,0,37.5,443.584,226.95)"><path d="M0.448,-0.066c-0.015,0.016 -0.031,0.03 -0.049,0.041c-0.017,0.011 -0.035,0.019 -0.054,0.024c-0.019,0.004 -0.041,0.007 -0.064,0.007c-0.04,0 -0.077,-0.009 -0.111,-0.027c-0.035,-0.017 -0.062,-0.045 -0.083,-0.084c-0.021,-0.04 -0.032,-0.089 -0.032,-0.149c0,-0.046 0.006,-0.085 0.019,-0.119c0.012,-0.033 0.029,-0.06 0.05,-0.081c0.021,-0.02 0.045,-0.036 0.072,-0.045c0.027,-0.009 0.055,-0.014 0.085,-0.014c0.036,0 0.067,0.005 0.093,0.017c0.026,0.011 0.051,0.029 0.074,0.054l-0.07,0.068c-0.016,-0.017 -0.031,-0.029 -0.045,-0.037c-0.014,-0.007 -0.032,-0.01 -0.052,-0.01c-0.04,0 -0.071,0.015 -0.094,0.044c-0.011,0.014 -0.019,0.031 -0.023,0.05c-0.005,0.019 -0.007,0.043 -0.007,0.073c0,0.057 0.01,0.099 0.03,0.124c0.023,0.03 0.054,0.045 0.094,0.045c0.02,0 0.037,-0.004 0.052,-0.011c0.014,-0.007 0.029,-0.02 0.045,-0.037l0.07,0.067Z" style="fill:#54cb51;fill-rule:nonzero;"/></g><g transform="matrix(37.5,0,0,37.5,467.653,226.95)"><path d="M0.485,-0.224l-0.329,0c0,0.03 0.005,0.055 0.015,0.076c0.01,0.021 0.025,0.037 0.044,0.049c0.019,0.011 0.042,0.017 0.07,0.017c0.028,0 0.051,-0.004 0.068,-0.012c0.017,-0.008 0.036,-0.021 0.055,-0.04l0.065,0.061c-0.028,0.027 -0.056,0.048 -0.084,0.06c-0.028,0.013 -0.064,0.019 -0.106,0.019c-0.033,0 -0.063,-0.005 -0.091,-0.014c-0.028,-0.01 -0.052,-0.025 -0.072,-0.045c-0.021,-0.021 -0.037,-0.048 -0.048,-0.081c-0.012,-0.033 -0.017,-0.073 -0.017,-0.12c0,-0.054 0.009,-0.101 0.026,-0.14c0.018,-0.038 0.043,-0.068 0.075,-0.088c0.033,-0.021 0.07,-0.031 0.114,-0.031c0.044,0 0.083,0.01 0.115,0.031c0.033,0.02 0.057,0.049 0.074,0.086c0.017,0.037 0.026,0.079 0.026,0.127l0,0.045Zm-0.101,-0.071c-0.001,-0.026 -0.006,-0.049 -0.014,-0.069c-0.008,-0.019 -0.021,-0.035 -0.038,-0.047c-0.018,-0.011 -0.038,-0.017 -0.062,-0.017c-0.023,0 -0.044,0.006 -0.062,0.017c-0.017,0.012 -0.031,0.028 -0.039,0.047c-0.005,0.011 -0.008,0.02 -0.009,0.028c-0.002,0.008 -0.003,0.022 -0.004,0.041l0.228,0Z" style="fill:#54cb51;fill-rule:nonzero;"/></g><g transform="matrix(37.5,0,0,37.5,493.756,226.95)"><path d="M0.456,-0.155c0,0.035 -0.009,0.064 -0.027,0.088c-0.018,0.024 -0.043,0.042 -0.074,0.055c-0.032,0.012 -0.068,0.018 -0.11,0.018c-0.03,0 -0.058,-0.002 -0.082,-0.006c-0.025,-0.005 -0.048,-0.012 -0.069,-0.022c-0.022,-0.011 -0.042,-0.026 -0.062,-0.045l0.067,-0.067c0.034,0.035 0.083,0.053 0.146,0.053c0.021,0 0.04,-0.003 0.057,-0.008c0.017,-0.005 0.03,-0.013 0.04,-0.023c0.009,-0.011 0.014,-0.024 0.014,-0.039c0,-0.036 -0.023,-0.056 -0.068,-0.06l-0.081,-0.007c-0.032,-0.003 -0.06,-0.01 -0.082,-0.02c-0.022,-0.011 -0.039,-0.026 -0.051,-0.046c-0.012,-0.02 -0.017,-0.045 -0.017,-0.074c0,-0.048 0.018,-0.086 0.054,-0.113c0.036,-0.028 0.082,-0.042 0.137,-0.042c0.082,0 0.144,0.019 0.188,0.057l-0.064,0.065c-0.03,-0.025 -0.071,-0.037 -0.125,-0.037c-0.03,0 -0.053,0.006 -0.069,0.017c-0.015,0.012 -0.023,0.028 -0.023,0.048c0,0.034 0.023,0.054 0.07,0.058l0.08,0.007c0.032,0.003 0.059,0.01 0.081,0.021c0.023,0.011 0.04,0.027 0.052,0.047c0.012,0.021 0.018,0.046 0.018,0.075Z" style="fill:#54cb51;fill-rule:nonzero;"/></g></g></g></svg>