<?xml version="1.0" encoding="UTF-8" ?>
<!DOCTYPE svg PUBLIC "-//W3C//DTD SVG 1.1//EN" "http://www.w3.org/Graphics/SVG/1.1/DTD/svg11.dtd">
<svg width="874pt" height="614pt" viewBox="0 0 874 614" version="1.1" xmlns="http://www.w3.org/2000/svg">
<path fill="#b80a0c" d=" M 0.00 0.00 L 874.00 0.00 L 874.00 614.00 L 0.00 614.00 L 0.00 0.00 Z" />
<path fill="#180909" d=" M 279.75 114.00 C 284.75 114.01 289.76 113.98 294.77 114.01 C 297.53 116.83 300.56 119.37 303.57 121.93 C 303.52 152.95 303.68 183.97 303.26 214.99 C 293.16 215.08 283.07 215.64 272.98 215.94 C 266.50 216.09 259.77 216.85 253.55 214.57 C 249.61 213.20 246.57 210.25 243.29 207.81 C 240.66 205.75 237.60 204.01 235.86 201.05 C 233.24 196.88 232.72 191.83 232.70 187.02 C 232.73 177.65 232.57 168.27 233.09 158.92 C 233.60 153.15 235.95 147.20 240.70 143.65 C 245.65 140.00 251.99 138.83 258.04 138.96 C 265.25 138.73 272.46 138.69 279.67 138.67 C 279.77 130.45 279.66 122.22 279.75 114.00 Z" />
<path fill="#180909" d=" M 314.00 113.76 C 319.00 113.69 323.99 113.70 328.98 113.70 C 331.75 116.68 335.45 118.79 337.88 122.03 C 338.24 125.96 337.94 129.91 337.99 133.85 C 333.08 133.61 328.09 134.48 323.25 133.71 C 320.08 131.30 316.90 128.81 314.10 126.00 C 313.78 121.93 314.07 117.84 314.00 113.76 Z" />
<path fill="#f2f0f0" d=" M 282.18 116.22 C 285.79 116.08 289.39 115.95 293.00 116.00 C 292.70 145.99 292.88 175.99 292.84 205.99 C 279.91 206.19 266.98 207.14 254.04 207.08 C 249.00 206.99 243.65 205.63 239.99 201.97 C 236.34 198.36 235.04 193.01 235.15 188.01 C 235.20 179.34 235.11 170.66 235.19 161.98 C 235.33 155.39 237.62 148.20 243.52 144.58 C 250.52 140.06 259.18 141.14 267.08 140.98 C 272.05 140.65 277.02 140.70 282.00 140.74 C 281.93 132.56 282.27 124.40 282.18 116.22 Z" />
<path fill="#f2f0f0" d=" M 316.38 116.08 C 320.01 115.99 323.63 115.68 327.27 115.69 C 327.28 118.74 327.29 121.79 327.24 124.84 C 323.64 124.83 320.04 124.85 316.44 124.80 C 316.42 121.89 316.42 118.99 316.38 116.08 Z" />
<path fill="#180909" d=" M 747.00 116.00 C 751.95 116.15 756.97 115.59 761.90 116.37 C 764.86 119.18 767.91 121.97 770.66 125.01 C 771.50 158.39 770.53 191.83 771.28 225.22 C 759.83 224.58 748.40 223.52 736.94 222.92 C 731.66 222.58 726.21 222.06 721.41 219.66 C 717.26 217.69 714.20 214.17 710.74 211.26 C 707.46 208.47 703.94 205.58 702.45 201.38 C 699.47 193.63 700.71 185.14 700.45 177.04 C 700.75 167.97 699.03 158.05 703.99 149.88 C 707.88 143.44 715.88 141.22 722.99 141.20 C 730.99 141.34 738.99 141.67 747.00 141.89 C 747.00 133.26 747.00 124.63 747.00 116.00 Z" />
<path fill="#f2f0f0" d=" M 749.43 118.21 C 752.92 118.15 756.42 118.17 759.92 118.13 C 760.82 143.08 759.88 168.08 760.40 193.05 C 760.75 200.24 760.53 207.44 760.54 214.64 C 749.01 213.76 737.47 213.14 725.94 212.43 C 720.07 212.00 713.85 210.80 709.33 206.77 C 705.36 203.40 703.37 198.19 703.03 193.09 C 702.86 184.38 703.25 175.66 702.75 166.96 C 702.72 160.89 703.32 154.27 707.42 149.45 C 711.73 144.47 718.76 143.22 725.05 143.40 C 733.17 143.69 741.29 143.99 749.42 144.14 C 749.43 135.50 749.41 126.85 749.43 118.21 Z" />
<path fill="#180909" d=" M 314.00 138.00 C 319.02 138.00 324.04 138.03 329.06 137.89 C 331.93 140.68 335.00 143.23 338.03 145.83 C 338.05 168.54 337.90 191.24 337.87 213.95 C 332.96 213.95 328.02 214.69 323.13 214.09 C 319.82 211.96 317.06 209.08 313.75 206.94 C 313.70 183.96 314.21 160.98 314.00 138.00 Z" />
<path fill="#180909" d=" M 352.74 137.76 C 363.17 137.65 373.59 137.75 384.02 137.70 C 390.06 137.67 396.32 138.35 401.72 141.26 C 405.19 142.98 407.52 146.18 410.41 148.66 C 413.24 151.14 416.39 153.50 418.00 157.02 C 420.14 161.00 420.32 165.61 420.31 170.02 C 420.24 184.35 420.34 198.68 420.25 213.00 C 407.15 212.87 394.07 213.12 380.98 213.31 C 374.36 213.52 367.15 212.57 362.16 207.79 C 358.09 203.85 351.99 201.65 350.03 195.90 C 346.82 187.37 347.11 175.81 354.76 169.71 C 359.67 166.02 366.03 165.09 372.02 165.00 C 380.08 164.97 388.13 165.03 396.19 164.99 C 396.11 162.73 396.03 160.48 395.93 158.23 C 384.66 157.99 373.37 158.94 362.13 158.34 C 358.75 156.23 355.96 153.32 352.75 150.96 C 352.69 146.56 352.70 142.16 352.74 137.76 Z" />
<path fill="#180909" d=" M 472.97 142.91 C 479.55 138.03 488.11 137.43 496.02 137.65 C 502.71 137.90 509.42 137.44 516.11 137.84 C 519.56 140.25 522.85 143.05 525.69 146.16 C 526.15 150.33 525.78 154.54 525.81 158.72 C 518.19 158.44 510.57 158.65 502.96 158.54 C 499.70 158.59 496.16 158.42 493.29 160.22 C 490.35 162.04 488.98 165.61 489.04 168.96 C 488.95 176.71 489.02 184.46 489.01 192.22 C 498.28 192.72 507.56 192.65 516.84 192.81 C 519.66 195.78 522.87 198.34 525.88 201.12 C 525.86 205.36 525.87 209.60 525.81 213.84 C 520.20 213.92 514.60 213.48 509.00 213.57 C 501.70 213.55 494.15 213.51 487.27 210.75 C 483.34 209.28 480.32 206.28 477.07 203.75 C 474.32 201.57 471.22 199.73 469.13 196.84 C 466.02 192.60 464.87 187.23 464.97 182.05 C 465.08 174.69 464.86 167.33 465.08 159.98 C 465.26 153.57 467.59 146.78 472.97 142.91 Z" />
<path fill="#180909" d=" M 536.60 144.62 C 542.07 139.61 549.81 138.18 557.01 138.13 C 565.29 138.20 573.59 137.89 581.86 138.60 C 584.65 141.56 588.22 143.78 590.70 147.01 C 591.12 151.21 590.77 155.45 590.83 159.67 C 582.53 159.70 574.25 159.24 565.96 159.26 C 562.20 159.20 557.82 160.18 555.75 163.63 C 553.41 167.67 554.08 172.56 554.07 177.02 C 554.47 182.28 554.04 187.56 554.43 192.81 C 555.31 193.71 556.78 193.35 557.92 193.57 C 565.90 193.96 573.95 193.62 581.90 194.36 C 584.96 196.93 587.68 199.92 590.93 202.30 C 591.06 206.70 591.00 211.11 591.00 215.53 C 584.66 215.43 578.33 215.02 571.99 214.99 C 565.62 214.90 559.10 214.57 553.13 212.17 C 547.37 210.00 543.36 205.11 538.37 201.74 C 532.43 197.59 530.07 190.05 530.06 183.09 C 530.16 176.05 530.12 169.02 530.14 161.98 C 530.21 155.72 531.80 148.98 536.60 144.62 Z" />
<path fill="#180909" d=" M 599.70 147.72 C 604.63 141.22 613.25 139.25 620.99 139.01 C 629.71 139.05 638.43 139.15 647.14 139.52 C 649.73 142.62 652.82 145.24 655.85 147.89 C 655.86 152.31 655.86 156.74 655.87 161.17 C 648.57 160.93 641.27 161.03 633.98 160.65 C 630.20 160.53 625.98 160.36 622.82 162.79 C 619.94 164.87 619.23 168.67 619.26 172.00 C 619.27 179.68 619.30 187.36 619.28 195.03 C 628.60 195.92 637.97 195.80 647.32 196.28 C 649.87 199.50 653.02 202.16 656.02 204.95 C 655.99 209.36 656.00 213.77 656.00 218.18 C 648.37 217.92 640.75 217.51 633.12 217.18 C 627.70 216.94 622.20 216.15 617.25 213.85 C 612.36 211.64 608.93 207.35 604.61 204.32 C 601.28 201.97 598.50 198.77 597.10 194.91 C 594.11 187.28 595.42 178.95 595.13 170.97 C 595.22 163.12 594.61 154.30 599.70 147.72 Z" />
<path fill="#180909" d=" M 164.51 142.24 C 171.76 139.69 179.56 140.67 187.08 140.15 C 194.64 139.99 203.60 139.92 209.07 146.04 C 213.07 150.75 219.44 153.65 221.19 160.02 C 223.86 169.61 221.84 179.65 222.25 189.44 C 206.38 190.29 190.47 190.53 174.62 191.64 C 174.55 193.89 174.48 196.14 174.40 198.40 C 186.53 198.01 198.64 197.07 210.78 196.97 C 213.46 199.84 216.98 201.86 219.40 204.97 C 219.83 209.35 219.48 213.77 219.48 218.17 C 208.31 218.75 197.14 219.29 185.98 219.93 C 179.91 220.14 173.25 220.58 167.94 217.06 C 164.66 214.74 161.71 211.98 158.33 209.79 C 153.03 206.49 150.91 199.93 150.97 193.96 C 150.99 186.95 151.07 179.95 150.73 172.96 C 150.75 166.23 150.20 159.20 152.80 152.83 C 154.88 147.77 159.38 143.98 164.51 142.24 Z" />
<path fill="#f2f0f0" d=" M 316.16 140.00 C 319.86 140.00 323.57 140.00 327.28 140.00 C 327.11 161.65 327.64 183.32 326.97 204.96 C 323.38 205.17 319.80 205.35 316.20 205.29 C 316.11 183.53 316.19 161.77 316.16 140.00 Z" />
<path fill="#f2f0f0" d=" M 355.00 139.72 C 365.32 139.77 375.64 139.64 385.95 139.78 C 393.02 140.01 400.89 141.63 405.58 147.41 C 409.66 152.28 409.73 159.01 409.59 165.04 C 409.56 178.03 409.58 191.01 409.58 204.00 C 398.72 204.09 387.85 203.76 377.00 204.28 C 370.76 204.25 364.07 204.83 358.40 201.71 C 354.07 199.45 351.49 194.75 350.95 190.01 C 350.34 184.57 350.50 178.50 353.97 173.96 C 357.47 169.39 363.42 167.68 368.92 167.24 C 378.86 166.78 388.82 167.09 398.77 167.00 C 398.58 163.03 398.83 158.91 397.62 155.09 C 395.74 150.60 390.50 149.07 386.03 149.26 C 375.69 149.46 365.32 148.88 355.00 149.65 C 354.99 146.34 355.00 143.03 355.00 139.72 Z" />
<path fill="#f2f0f0" d=" M 470.81 148.84 C 474.95 142.51 482.89 140.09 490.09 139.79 C 498.39 139.62 506.70 139.77 515.00 139.72 C 515.00 142.90 514.99 146.08 515.00 149.25 C 506.99 149.32 498.99 149.24 490.98 149.28 C 486.97 149.35 482.39 150.51 480.15 154.14 C 477.87 157.63 478.29 161.99 478.26 165.97 C 478.38 172.26 478.08 178.57 478.39 184.86 C 478.50 190.02 483.21 193.78 488.08 194.18 C 497.03 195.01 506.03 194.58 515.00 194.80 C 515.00 198.07 515.00 201.35 515.00 204.63 C 505.20 203.74 495.27 205.00 485.53 203.39 C 479.03 202.27 472.42 198.83 469.52 192.63 C 465.93 185.23 467.69 176.86 467.43 168.99 C 467.40 162.20 466.86 154.76 470.81 148.84 Z" />
<path fill="#f2f0f0" d=" M 546.45 141.78 C 557.38 138.69 568.83 140.82 580.00 140.40 C 580.00 143.70 579.99 147.01 580.00 150.31 C 572.35 149.68 564.67 150.22 557.02 149.85 C 552.24 149.70 546.56 151.20 544.55 156.02 C 542.16 162.43 544.03 169.33 543.58 175.97 C 543.97 181.24 542.14 187.57 546.18 191.85 C 550.27 195.94 556.57 195.64 561.93 195.74 C 568.03 196.06 574.14 195.93 580.25 196.21 C 580.28 199.46 580.27 202.71 580.28 205.96 C 571.88 205.67 563.46 205.72 555.07 205.07 C 548.42 204.52 541.38 202.35 536.97 197.05 C 533.08 192.32 532.26 185.95 532.40 180.03 C 532.54 171.98 532.03 163.86 533.24 155.87 C 534.48 149.10 539.87 143.58 546.45 141.78 Z" />
<path fill="#f2f0f0" d=" M 603.41 147.35 C 607.50 143.36 613.31 141.80 618.86 141.29 C 627.57 140.78 636.28 141.64 645.00 141.40 C 645.00 144.81 645.00 148.21 645.00 151.62 C 637.00 151.18 628.99 151.02 620.98 151.00 C 616.88 150.98 612.31 152.42 610.13 156.15 C 608.08 159.74 608.64 164.03 608.57 167.99 C 608.72 174.63 608.30 181.30 608.78 187.93 C 609.13 193.15 614.06 196.67 618.96 197.14 C 627.67 197.98 636.44 197.99 645.18 198.22 C 645.30 201.58 645.29 204.95 645.26 208.31 C 636.13 207.66 626.93 208.05 617.86 206.78 C 612.26 205.86 606.59 203.71 602.73 199.39 C 599.20 195.52 597.71 190.17 597.72 185.01 C 597.74 177.35 597.68 169.69 597.75 162.03 C 597.83 156.70 599.49 151.14 603.41 147.35 Z" />
<path fill="#180909" d=" M 86.70 144.70 C 92.13 142.25 98.24 142.91 104.03 142.54 C 110.07 142.46 116.58 141.70 122.11 144.69 C 125.18 146.19 127.14 149.09 129.59 151.35 C 132.17 153.80 135.25 155.86 137.06 159.02 C 139.90 163.81 140.37 169.53 140.31 174.98 C 140.21 190.92 140.40 206.86 140.21 222.80 C 135.47 222.86 130.74 223.62 126.00 223.45 C 122.47 221.47 119.79 218.32 116.50 215.99 C 116.21 198.95 116.82 181.90 116.20 164.87 C 110.56 165.19 104.69 164.48 99.27 166.34 C 94.89 167.95 92.61 172.64 92.62 177.10 C 92.40 193.42 92.70 209.75 92.48 226.07 C 87.66 226.33 82.85 227.20 78.02 226.95 C 74.76 224.57 71.50 221.95 68.83 218.95 C 68.52 201.67 68.84 184.37 68.69 167.08 C 63.25 167.09 57.61 166.73 52.39 168.55 C 47.41 170.39 45.52 176.04 45.35 180.92 C 45.08 197.26 45.62 213.61 44.98 229.95 C 40.32 230.30 35.68 231.17 31.00 231.02 C 27.54 228.84 24.55 225.88 21.56 223.09 C 21.28 197.26 21.54 171.40 21.44 145.56 C 26.50 145.00 31.59 144.95 36.68 145.00 C 37.37 145.86 38.07 146.72 38.77 147.58 C 46.76 142.97 56.26 144.32 65.07 143.96 C 70.49 143.63 75.93 145.71 79.41 149.94 C 81.64 147.95 83.91 145.89 86.70 144.70 Z" />
<path fill="#f2f0f0" d=" M 158.63 148.64 C 161.59 145.55 165.74 143.93 169.88 143.19 C 177.55 142.07 185.33 142.51 193.05 142.41 C 198.17 142.43 203.72 143.71 207.31 147.62 C 210.90 151.43 211.80 156.92 211.85 161.97 C 211.82 168.16 211.86 174.36 211.80 180.55 C 195.81 180.85 179.82 181.67 163.84 182.35 C 164.10 186.76 163.13 191.38 164.61 195.64 C 165.81 199.11 169.57 200.72 173.02 200.68 C 185.02 200.12 197.01 199.55 209.00 198.99 C 209.00 202.39 209.00 205.80 209.00 209.21 C 198.33 209.76 187.66 210.13 177.00 210.86 C 170.83 211.30 163.98 211.01 158.92 207.00 C 154.53 203.41 153.23 197.43 153.16 192.02 C 153.15 182.68 153.18 173.34 153.15 164.01 C 153.20 158.52 154.53 152.58 158.63 148.64 Z" />
<path fill="#180909" d=" M 789.42 147.38 C 797.27 142.10 807.15 143.72 816.05 143.99 C 824.21 144.04 833.82 144.57 839.32 151.54 C 842.85 156.38 848.33 159.72 850.68 165.40 C 852.82 170.29 852.98 175.71 852.88 180.97 C 852.82 187.48 852.81 194.00 853.04 200.52 C 837.14 199.44 821.24 198.39 805.35 197.27 C 805.25 199.75 805.13 202.22 805.04 204.70 C 817.20 205.29 829.33 206.40 841.48 207.24 C 843.95 210.86 847.57 213.50 850.04 217.11 C 850.65 222.01 850.20 226.97 850.16 231.90 C 837.97 230.70 825.75 229.68 813.55 228.65 C 808.06 228.07 802.39 226.58 798.19 222.82 C 795.26 220.12 792.61 217.12 789.43 214.70 C 784.55 211.05 782.08 204.95 781.82 199.00 C 781.22 187.67 781.51 176.33 781.44 165.00 C 781.40 158.40 783.64 151.15 789.42 147.38 Z" />
<path fill="#f2f0f0" d=" M 87.74 146.82 C 93.17 144.26 99.28 145.31 105.05 144.77 C 110.42 144.71 116.25 144.06 121.09 146.89 C 125.81 149.47 128.37 154.73 129.14 159.88 C 130.37 167.53 129.75 175.33 129.58 183.04 C 129.56 193.22 129.61 203.40 129.55 213.59 C 125.95 213.90 122.34 213.97 118.73 214.25 C 118.50 199.15 119.09 184.06 119.00 168.97 C 118.94 164.19 117.67 158.39 112.85 156.25 C 107.44 154.29 101.58 155.66 95.98 155.63 C 90.78 155.54 84.96 157.92 83.05 163.11 C 81.23 167.87 82.28 173.06 82.00 178.02 C 81.75 190.96 81.90 203.90 81.78 216.84 C 78.18 217.04 74.60 217.41 71.00 217.66 C 71.07 201.43 71.28 185.20 71.14 168.97 C 71.17 165.08 69.73 160.87 66.28 158.74 C 62.87 156.76 58.79 156.86 54.99 157.23 C 49.85 157.65 43.99 157.08 39.80 160.66 C 35.51 164.02 34.62 169.85 34.58 174.96 C 34.55 190.17 34.62 205.37 34.55 220.58 C 30.94 220.90 27.33 221.10 23.72 221.42 C 23.51 196.85 24.08 172.31 24.00 147.75 C 27.51 147.39 31.04 147.38 34.56 147.18 C 34.57 150.29 34.54 153.39 34.69 156.50 C 36.70 153.39 38.83 150.04 42.37 148.50 C 47.21 146.17 52.76 146.68 57.98 146.32 C 63.53 146.09 69.61 145.49 74.53 148.62 C 77.29 150.18 78.32 153.32 79.44 156.08 C 80.71 151.97 83.74 148.46 87.74 146.82 Z" />
<path fill="#f2f0f0" d=" M 789.04 151.00 C 795.39 144.82 804.88 145.78 812.99 146.12 C 820.86 146.61 830.02 145.81 836.19 151.71 C 842.26 157.37 842.36 166.30 842.29 174.00 C 842.27 179.12 842.27 184.24 842.28 189.35 C 826.38 188.50 810.49 187.40 794.59 186.54 C 794.75 190.98 794.07 195.51 795.11 199.88 C 796.19 203.92 800.11 206.53 804.17 206.85 C 815.97 207.65 827.77 208.51 839.57 209.46 C 839.58 213.15 839.58 216.85 839.57 220.54 C 827.67 219.49 815.76 218.65 803.87 217.64 C 796.36 216.89 788.49 212.98 785.75 205.52 C 782.40 196.39 784.83 186.46 783.79 176.99 C 783.86 168.25 782.22 157.82 789.04 151.00 Z" />
<path fill="#180909" d=" M 248.67 154.74 C 251.25 151.85 255.30 150.84 259.04 150.85 C 266.70 150.85 274.34 150.41 282.00 150.58 C 281.98 165.45 282.03 180.32 281.97 195.18 C 281.90 195.50 281.75 196.14 281.67 196.46 C 273.43 197.06 265.14 196.94 256.89 197.30 C 254.06 197.34 250.95 197.19 248.66 195.34 C 246.49 193.62 245.76 190.72 245.83 188.07 C 245.83 180.06 245.83 172.05 245.83 164.04 C 245.83 160.77 246.41 157.25 248.67 154.74 Z" />
<path fill="#180909" d=" M 165.36 157.36 C 167.50 153.72 172.13 152.82 176.03 152.88 C 182.33 152.94 188.65 152.18 194.94 152.75 C 198.14 153.04 200.83 155.82 201.08 159.00 C 201.49 162.88 201.41 166.79 201.43 170.69 C 188.96 171.17 176.48 171.69 164.00 172.05 C 164.31 167.17 163.11 161.92 165.36 157.36 Z" />
<path fill="#180909" d=" M 713.61 164.09 C 713.47 158.43 718.45 153.71 724.04 153.86 C 732.50 153.83 740.97 154.11 749.42 154.65 C 749.19 170.93 749.78 187.20 749.70 203.48 C 740.42 202.93 731.12 202.57 721.86 201.78 C 717.45 201.21 713.71 197.49 713.68 192.94 C 713.46 183.33 713.59 173.70 713.61 164.09 Z" />
<path fill="#180909" d=" M 794.99 162.96 C 795.59 159.20 799.37 156.67 803.06 156.79 C 809.73 156.79 816.43 156.97 823.09 157.48 C 827.02 157.66 830.86 160.43 831.42 164.49 C 831.97 168.97 832.00 173.50 832.00 178.01 C 819.54 177.10 807.05 176.48 794.57 175.96 C 794.64 171.63 794.36 167.26 794.99 162.96 Z" />
<path fill="#b80a0c" d=" M 263.91 160.58 C 269.07 159.56 274.41 160.06 279.64 159.67 C 279.57 171.26 279.39 182.84 279.39 194.43 C 271.75 194.78 264.09 195.25 256.44 194.88 C 256.73 186.64 256.39 178.39 256.60 170.15 C 256.60 165.79 259.45 161.42 263.91 160.58 Z" />
<path fill="#b80a0c" d=" M 180.78 162.71 C 186.79 161.69 192.93 162.16 199.00 161.87 C 198.98 164.15 198.96 166.43 198.92 168.71 C 190.81 168.95 182.71 169.28 174.60 169.35 C 175.38 166.27 177.37 163.17 180.78 162.71 Z" />
<path fill="#b80a0c" d=" M 724.30 172.92 C 724.26 168.61 727.58 164.57 731.93 164.11 C 736.93 163.60 741.97 164.16 746.99 164.28 C 747.30 176.54 747.11 188.81 747.10 201.07 C 739.46 200.82 731.85 200.22 724.22 199.85 C 724.42 190.87 724.14 181.89 724.30 172.92 Z" />
<path fill="#b80a0c" d=" M 806.49 170.39 C 807.86 168.22 810.52 167.26 813.01 167.29 C 818.45 167.26 823.89 167.81 829.34 168.00 C 829.41 170.45 829.37 172.91 829.40 175.37 C 821.79 174.91 814.14 174.89 806.55 174.15 C 804.38 173.63 805.99 171.62 806.49 170.39 Z" />
<path fill="#180909" d=" M 362.81 192.15 C 359.22 187.51 360.45 178.51 366.93 177.13 C 377.46 176.37 388.07 176.66 398.64 176.54 C 398.78 182.51 398.75 188.48 398.66 194.45 C 390.78 194.43 382.90 194.27 375.04 194.73 C 370.94 194.64 365.96 195.39 362.81 192.15 Z" />
<path fill="#b80a0c" d=" M 371.72 192.70 C 371.89 189.70 373.65 186.48 376.91 186.12 C 383.43 185.57 389.99 185.97 396.53 185.59 C 396.35 187.91 396.13 190.23 395.89 192.54 C 387.83 192.44 379.77 192.26 371.72 192.70 Z" />
<path fill="#180909" d=" M 430.74 192.76 C 435.17 192.78 439.59 192.54 444.02 192.74 C 445.45 192.59 446.42 193.79 447.44 194.58 C 449.70 196.70 452.25 198.51 454.34 200.82 C 454.91 204.77 454.47 208.80 454.61 212.78 C 449.82 212.75 444.99 213.23 440.23 212.61 C 436.77 210.49 433.97 207.47 430.70 205.08 C 430.70 200.97 430.71 196.86 430.74 192.76 Z" />
<path fill="#f2f0f0" d=" M 433.00 195.00 C 436.61 195.00 440.22 195.00 443.84 195.00 C 443.83 197.94 443.84 200.87 443.81 203.81 C 440.21 203.84 436.60 203.83 433.00 203.84 C 433.00 200.89 433.00 197.94 433.00 195.00 Z" />
<path fill="#180909" d=" M 666.53 197.74 C 671.06 198.03 675.63 197.88 680.16 198.28 C 681.36 198.21 682.05 199.34 682.87 200.02 C 685.15 202.48 687.81 204.58 689.96 207.17 C 690.74 211.31 690.14 215.57 690.24 219.77 C 685.49 219.56 680.68 219.67 675.99 218.86 C 672.52 216.37 669.35 213.34 666.56 210.12 C 666.20 206.00 666.51 201.87 666.53 197.74 Z" />
<path fill="#f2f0f0" d=" M 668.72 199.97 C 672.34 200.07 675.95 200.19 679.56 200.49 C 679.58 203.57 679.57 206.65 679.59 209.74 C 675.96 209.60 672.35 209.36 668.73 209.19 C 668.72 206.12 668.72 203.05 668.72 199.97 Z" />
<path fill="#180909" d=" M 368.74 255.07 C 369.07 253.57 369.18 251.97 369.97 250.63 C 375.03 250.17 380.12 250.60 385.20 250.37 C 387.70 253.09 391.81 255.00 392.25 259.06 C 396.66 282.22 401.41 305.32 405.63 328.51 C 402.43 328.53 399.21 328.78 396.03 328.40 C 392.10 325.79 388.34 322.26 387.93 317.27 C 383.42 317.28 378.91 317.28 374.40 317.29 C 373.70 321.03 372.94 324.75 372.17 328.47 C 368.80 328.56 365.44 328.58 362.07 328.53 C 360.05 326.50 357.99 324.52 355.84 322.63 C 359.80 300.05 364.59 277.62 368.74 255.07 Z" />
<path fill="#180909" d=" M 415.10 250.61 C 418.69 250.42 422.28 250.39 425.87 250.49 C 428.20 253.09 431.16 255.26 432.66 258.49 C 437.50 270.14 441.81 282.03 446.85 293.59 C 447.17 279.24 446.93 264.88 446.99 250.53 C 450.30 250.48 453.63 250.18 456.92 250.62 C 459.89 252.95 463.96 255.71 463.32 260.04 C 463.20 282.85 463.38 305.67 463.23 328.49 C 459.17 328.47 455.08 328.86 451.04 328.34 C 447.95 326.00 444.77 323.30 443.36 319.57 C 439.38 309.70 435.45 299.81 431.34 289.99 C 431.18 302.81 431.37 315.63 431.25 328.46 C 428.18 328.52 425.09 328.80 422.04 328.40 C 419.46 326.84 417.57 324.40 415.23 322.53 C 415.00 298.56 415.25 274.59 415.10 250.61 Z" />
<path fill="#180909" d=" M 469.99 250.51 C 478.01 250.41 486.03 250.45 494.06 250.44 C 498.94 250.46 504.20 251.68 507.66 255.37 C 509.88 257.79 512.18 260.15 514.38 262.60 C 517.96 266.84 518.56 272.67 518.57 278.00 C 518.51 288.34 518.58 298.67 518.55 309.01 C 518.56 314.84 516.86 321.33 511.84 324.83 C 506.43 328.84 499.37 328.63 492.97 328.56 C 487.39 328.29 481.72 329.10 476.21 328.17 C 474.02 326.46 472.14 324.41 470.03 322.62 C 469.96 298.58 470.03 274.55 469.99 250.51 Z" />
<path fill="#f2f0f0" d=" M 371.27 252.00 C 375.75 252.00 380.23 252.00 384.72 252.00 C 389.05 275.11 393.78 298.16 398.13 321.27 C 395.69 321.28 393.26 321.27 390.84 321.27 C 390.06 317.52 389.30 313.77 388.66 310.00 C 381.57 310.02 374.48 309.96 367.40 310.03 C 366.70 313.79 365.88 317.52 365.11 321.26 C 362.66 321.27 360.22 321.28 357.78 321.27 C 362.20 298.17 366.78 275.09 371.27 252.00 Z" />
<path fill="#f2f0f0" d=" M 417.00 252.00 C 419.67 252.00 422.35 252.00 425.03 252.00 C 432.88 271.79 441.06 291.47 448.64 311.36 C 448.83 291.58 448.67 271.79 448.72 252.00 C 451.15 252.00 453.57 252.00 456.00 252.00 C 456.00 275.09 456.00 298.18 456.00 321.28 C 452.65 321.28 449.31 321.28 445.97 321.27 C 442.02 311.43 438.05 301.61 434.06 291.79 C 430.71 283.19 426.82 274.78 424.29 265.89 C 423.63 284.33 424.18 302.82 424.00 321.28 C 421.66 321.27 419.33 321.27 417.00 321.28 C 417.00 298.18 417.00 275.09 417.00 252.00 Z" />
<path fill="#f2f0f0" d=" M 471.72 252.00 C 479.18 252.01 486.63 251.97 494.08 252.02 C 499.20 252.15 504.67 253.93 507.78 258.24 C 511.19 262.70 511.41 268.58 511.29 273.97 C 511.24 283.98 511.31 293.99 511.27 304.00 C 511.19 308.77 509.62 313.77 505.96 317.01 C 502.47 320.17 497.60 321.22 493.01 321.28 C 485.92 321.29 478.83 321.27 471.73 321.26 C 471.71 298.18 471.73 275.09 471.72 252.00 Z" />
<path fill="#180909" d=" M 377.52 254.25 C 377.72 254.25 378.12 254.27 378.32 254.28 C 380.35 270.57 384.10 286.60 387.02 302.75 C 380.99 302.70 374.96 302.72 368.94 302.73 C 371.73 286.57 375.90 270.58 377.52 254.25 Z" />
<path fill="#180909" d=" M 478.85 259.58 C 484.52 259.68 490.21 259.34 495.88 259.75 C 500.24 259.89 504.21 263.54 504.12 268.01 C 504.22 279.99 504.15 291.97 504.15 303.95 C 504.47 308.36 501.39 312.82 496.91 313.48 C 490.94 314.50 484.85 313.78 478.84 314.00 C 478.84 295.86 478.82 277.72 478.85 259.58 Z" />
<path fill="#b80a0c" d=" M 486.01 266.88 C 491.51 266.89 497.03 266.63 502.52 267.20 C 502.34 279.47 502.54 291.76 502.43 304.03 C 502.47 307.17 500.75 310.48 497.62 311.47 C 493.86 312.58 489.88 312.06 486.02 312.11 C 485.99 297.04 485.99 281.96 486.01 266.88 Z" />
<path fill="#b80a0c" d=" M 377.60 301.00 C 378.83 294.94 379.62 288.77 381.44 282.85 C 382.41 288.92 383.72 294.93 384.85 300.97 C 382.43 300.98 380.01 300.99 377.60 301.00 Z" />
<path fill="#180909" d=" M 475.75 357.77 C 480.74 357.70 485.73 357.63 490.72 357.82 C 493.31 361.17 496.73 363.78 499.32 367.12 C 499.88 381.06 499.38 395.05 499.55 409.01 C 499.51 422.96 499.65 436.90 499.46 450.84 C 506.88 451.16 514.31 450.87 521.74 451.05 C 524.20 454.42 527.58 456.95 530.20 460.18 C 531.03 465.35 530.43 470.65 530.41 475.88 C 515.33 475.83 500.26 475.88 485.19 475.85 C 482.07 472.81 479.03 469.67 475.80 466.75 C 475.63 430.43 475.72 394.10 475.75 357.77 Z" />
<path fill="#180909" d=" M 533.51 357.75 C 538.39 357.71 543.27 357.73 548.15 357.66 C 551.05 360.90 554.14 363.95 557.25 367.01 C 557.31 394.97 557.31 422.94 557.25 450.91 C 564.68 451.09 572.11 450.93 579.55 451.03 C 581.90 454.50 585.35 456.98 587.95 460.23 C 588.76 465.39 588.14 470.67 588.16 475.88 C 573.09 475.84 558.02 475.86 542.94 475.87 C 540.18 473.02 537.24 470.35 534.51 467.47 C 533.13 466.37 533.51 464.50 533.41 462.98 C 533.55 427.90 533.34 392.82 533.51 357.75 Z" />
<path fill="#180909" d=" M 294.14 365.21 C 300.05 359.83 308.35 358.52 316.06 358.46 C 326.38 358.53 336.72 358.27 347.03 358.56 C 350.43 361.28 353.43 364.59 356.32 367.86 C 356.98 372.72 356.49 377.67 356.45 382.57 C 345.93 382.54 335.41 382.55 324.90 382.54 C 320.56 382.61 315.54 383.01 312.61 386.66 C 309.28 390.67 310.12 396.19 310.00 401.02 C 309.87 417.63 310.14 434.24 310.38 450.85 C 322.78 451.56 335.22 450.85 347.63 451.22 C 350.17 454.81 353.95 457.32 356.39 460.96 C 356.83 465.93 356.53 470.93 356.38 475.91 C 346.26 475.77 336.14 475.95 326.02 475.82 C 317.82 475.74 308.84 474.27 303.02 467.94 C 299.27 463.70 293.98 460.96 291.03 456.02 C 287.15 449.77 286.10 442.25 286.12 435.02 C 286.17 419.01 286.13 403.01 286.14 387.01 C 286.21 379.17 288.15 370.70 294.14 365.21 Z" />
<path fill="#180909" d=" M 358.11 358.63 C 363.07 358.46 368.05 358.19 373.00 358.57 C 375.92 361.12 378.56 363.99 381.22 366.81 C 382.48 367.85 382.23 369.55 382.32 371.01 C 382.27 382.24 382.28 393.47 382.29 404.70 C 390.52 404.74 398.76 404.67 406.99 404.75 C 407.32 389.37 407.08 373.98 407.11 358.60 C 412.07 358.36 417.05 358.44 422.03 358.45 C 424.87 361.76 428.02 364.77 431.05 367.90 C 430.92 403.90 431.06 439.90 430.98 475.90 C 426.15 475.63 421.22 476.36 416.47 475.48 C 413.17 472.79 410.51 469.42 407.20 466.74 C 407.05 454.16 407.20 441.58 407.13 429.01 C 398.83 429.02 390.52 428.92 382.23 429.11 C 382.31 444.69 382.34 460.28 382.21 475.87 C 377.49 475.74 372.74 476.17 368.03 475.66 C 364.47 472.98 361.84 469.24 358.21 466.62 C 358.02 430.63 358.23 394.63 358.11 358.63 Z" />
<path fill="#180909" d=" M 441.11 358.62 C 446.07 358.47 451.07 358.19 456.03 358.57 C 459.05 360.95 461.64 363.87 464.30 366.65 C 465.54 367.76 465.21 369.52 465.33 370.99 C 465.19 405.95 465.39 440.90 465.22 475.86 C 460.45 475.86 455.68 475.86 450.91 475.85 C 447.75 472.72 444.76 469.40 441.24 466.66 C 440.98 430.65 441.26 394.63 441.11 358.62 Z" />
<path fill="#f2f0f0" d=" M 478.00 360.00 C 481.61 360.00 485.22 359.99 488.84 360.00 C 488.84 391.14 488.82 422.28 488.85 453.42 C 499.17 453.44 509.49 453.40 519.81 453.44 C 519.84 457.29 519.83 461.14 519.84 465.00 C 505.89 465.00 491.95 465.00 478.00 465.00 C 478.00 430.00 478.00 395.00 478.00 360.00 Z" />
<path fill="#f2f0f0" d=" M 535.72 360.00 C 539.35 360.01 542.98 359.97 546.61 360.02 C 546.54 391.15 546.59 422.28 546.58 453.42 C 556.91 453.44 567.23 453.39 577.56 453.45 C 577.58 457.29 577.57 461.15 577.59 465.00 C 563.64 465.00 549.68 465.00 535.72 465.00 C 535.72 430.00 535.72 395.00 535.72 360.00 Z" />
<path fill="#f2f0f0" d=" M 293.71 369.63 C 298.19 363.76 305.79 361.25 312.94 361.01 C 323.96 360.98 334.98 361.01 346.00 361.00 C 346.00 364.66 346.00 368.33 346.00 372.00 C 334.64 372.01 323.28 371.97 311.92 372.02 C 307.70 372.27 303.09 374.05 301.10 378.04 C 298.54 382.96 299.43 388.70 299.28 394.03 C 299.06 407.68 299.81 421.30 299.56 434.95 C 299.47 440.26 299.81 446.25 303.70 450.30 C 306.28 453.14 310.34 453.64 313.97 453.72 C 324.65 453.73 335.32 453.71 346.00 453.73 C 346.00 457.48 346.00 461.24 346.00 465.00 C 335.67 464.99 325.35 465.01 315.02 464.99 C 308.19 464.86 300.94 463.02 296.03 458.00 C 287.28 449.06 288.46 435.55 288.42 424.04 C 288.42 412.35 288.43 400.66 288.41 388.98 C 288.55 382.26 289.45 375.09 293.71 369.63 Z" />
<path fill="#f2f0f0" d=" M 360.74 360.74 C 364.34 360.71 367.95 360.71 371.57 360.75 C 371.60 376.16 371.56 391.58 371.59 407.00 C 384.20 407.00 396.82 407.00 409.44 407.00 C 409.41 391.58 409.41 376.16 409.44 360.74 C 413.04 360.71 416.65 360.72 420.26 360.73 C 420.29 395.49 420.27 430.24 420.28 465.00 C 416.65 464.99 413.02 465.01 409.40 464.99 C 409.47 449.44 409.37 433.90 409.45 418.35 C 396.84 418.17 384.23 418.35 371.63 418.26 C 371.50 433.84 371.64 449.42 371.55 465.00 C 367.94 464.99 364.33 465.00 360.72 465.00 C 360.73 430.24 360.71 395.49 360.74 360.74 Z" />
<path fill="#f2f0f0" d=" M 443.73 360.74 C 447.43 360.71 451.13 360.71 454.83 360.75 C 454.84 395.50 454.83 430.25 454.84 465.00 C 451.13 465.00 447.43 465.00 443.72 465.00 C 443.73 430.25 443.71 395.49 443.73 360.74 Z" />
</svg>
